<svg xmlns="http://www.w3.org/2000/svg" xmlns:xlink="http://www.w3.org/1999/xlink" width="500" zoomAndPan="magnify" viewBox="0 0 375 374.999991" height="500" preserveAspectRatio="xMidYMid meet" version="1.0"><defs><g/></defs><g fill="#ffffff" fill-opacity="1"><g transform="translate(82.253905, 200.999987)"><g><path d="M 17.96875 -21.5625 C 17.96875 -22.707031 17.757812 -23.566406 17.34375 -24.140625 C 16.925781 -24.710938 16.46875 -25.148438 15.96875 -25.453125 C 15.46875 -25.765625 14.914062 -26 14.3125 -26.15625 C 13.71875 -26.320312 13.117188 -26.40625 12.515625 -26.40625 C 11.523438 -26.40625 10.660156 -26.289062 9.921875 -26.0625 C 9.179688 -25.832031 8.566406 -25.519531 8.078125 -25.125 C 7.585938 -24.738281 7.21875 -24.285156 6.96875 -23.765625 C 6.726562 -23.242188 6.609375 -22.695312 6.609375 -22.125 C 6.609375 -21.269531 6.757812 -20.578125 7.0625 -20.046875 C 7.363281 -19.523438 7.75 -19.101562 8.21875 -18.78125 C 8.6875 -18.457031 9.203125 -18.203125 9.765625 -18.015625 C 10.335938 -17.835938 10.882812 -17.660156 11.40625 -17.484375 L 15.359375 -16.1875 C 16.535156 -15.8125 17.578125 -15.382812 18.484375 -14.90625 C 19.390625 -14.425781 20.148438 -13.851562 20.765625 -13.1875 C 21.378906 -12.53125 21.84375 -11.769531 22.15625 -10.90625 C 22.476562 -10.050781 22.640625 -9.0625 22.640625 -7.9375 C 22.640625 -6.707031 22.390625 -5.570312 21.890625 -4.53125 C 21.390625 -3.488281 20.6875 -2.582031 19.78125 -1.8125 C 18.882812 -1.050781 17.8125 -0.453125 16.5625 -0.015625 C 15.320312 0.421875 13.960938 0.640625 12.484375 0.640625 C 10.960938 0.640625 9.660156 0.46875 8.578125 0.125 C 7.492188 -0.21875 6.582031 -0.675781 5.84375 -1.25 C 5.113281 -1.832031 4.523438 -2.492188 4.078125 -3.234375 C 3.640625 -3.984375 3.296875 -4.75 3.046875 -5.53125 L 1.5625 -5.53125 L 1.5625 -8.890625 L 6.484375 -8.890625 C 6.484375 -7.441406 6.632812 -6.414062 6.9375 -5.8125 C 7.25 -5.21875 7.675781 -4.722656 8.21875 -4.328125 C 8.769531 -3.929688 9.421875 -3.628906 10.171875 -3.421875 C 10.929688 -3.222656 11.765625 -3.125 12.671875 -3.125 C 13.554688 -3.125 14.351562 -3.226562 15.0625 -3.4375 C 15.78125 -3.644531 16.390625 -3.945312 16.890625 -4.34375 C 17.390625 -4.738281 17.769531 -5.21875 18.03125 -5.78125 C 18.300781 -6.351562 18.4375 -7 18.4375 -7.71875 C 18.4375 -8.507812 18.269531 -9.179688 17.9375 -9.734375 C 17.601562 -10.285156 17.175781 -10.753906 16.65625 -11.140625 C 16.132812 -11.535156 15.566406 -11.859375 14.953125 -12.109375 C 14.335938 -12.359375 13.742188 -12.570312 13.171875 -12.75 L 8.890625 -13.96875 C 7.953125 -14.25 7.09375 -14.609375 6.3125 -15.046875 C 5.539062 -15.492188 4.878906 -16.035156 4.328125 -16.671875 C 3.773438 -17.316406 3.347656 -18.066406 3.046875 -18.921875 C 2.742188 -19.773438 2.59375 -20.757812 2.59375 -21.875 C 2.59375 -23.007812 2.8125 -24.070312 3.25 -25.0625 C 3.695312 -26.050781 4.347656 -26.914062 5.203125 -27.65625 C 6.066406 -28.394531 7.117188 -28.976562 8.359375 -29.40625 C 9.609375 -29.832031 11.035156 -30.046875 12.640625 -30.046875 C 13.691406 -30.046875 14.660156 -29.921875 15.546875 -29.671875 C 16.441406 -29.421875 17.25 -29.070312 17.96875 -28.625 C 18.695312 -28.175781 19.335938 -27.632812 19.890625 -27 C 20.441406 -26.375 20.910156 -25.679688 21.296875 -24.921875 L 22.75 -24.921875 L 22.75 -21.5625 Z M 17.96875 -21.5625 "/></g></g></g><g fill="#ffffff" fill-opacity="1"><g transform="translate(105.884408, 200.999987)"><g><path d="M 23.59375 -29.609375 L 33.203125 -29.609375 L 33.203125 -26.25 L 30.390625 -26.25 L 30.390625 -3.359375 L 33.203125 -3.359375 L 33.203125 0 L 23.59375 0 L 23.59375 -3.359375 L 26.5625 -3.359375 L 26.5625 -14 L 9.4375 -14 L 9.4375 -3.359375 L 12.40625 -3.359375 L 12.40625 0 L 2.796875 0 L 2.796875 -3.359375 L 5.609375 -3.359375 L 5.609375 -26.25 L 2.796875 -26.25 L 2.796875 -29.609375 L 12.40625 -29.609375 L 12.40625 -26.25 L 9.4375 -26.25 L 9.4375 -17.28125 L 26.5625 -17.28125 L 26.5625 -26.25 L 23.59375 -26.25 Z M 23.59375 -29.609375 "/></g></g></g><g fill="#ffffff" fill-opacity="1"><g transform="translate(141.876989, 200.999987)"><g><path d="M 20.3125 -3.359375 L 22.78125 -3.359375 L 20.4375 -10.078125 L 9.046875 -10.078125 L 6.765625 -3.359375 L 9.8125 -3.359375 L 9.8125 0 L 0.203125 0 L 0.203125 -3.359375 L 2.78125 -3.359375 L 12 -29.609375 L 17.75 -29.609375 L 26.953125 -3.359375 L 29.921875 -3.359375 L 29.921875 0 L 20.3125 0 Z M 10.15625 -13.328125 L 19.296875 -13.328125 L 14.6875 -26.5625 Z M 10.15625 -13.328125 "/></g></g></g><g fill="#ffffff" fill-opacity="1"><g transform="translate(171.991233, 200.999987)"><g><path d="M 2.796875 -29.609375 L 15.125 -29.609375 C 16.4375 -29.609375 17.648438 -29.4375 18.765625 -29.09375 C 19.878906 -28.75 20.84375 -28.238281 21.65625 -27.5625 C 22.46875 -26.894531 23.097656 -26.0625 23.546875 -25.0625 C 24.003906 -24.0625 24.234375 -22.910156 24.234375 -21.609375 C 24.234375 -20.859375 24.097656 -20.125 23.828125 -19.40625 C 23.566406 -18.6875 23.195312 -18.015625 22.71875 -17.390625 C 22.25 -16.773438 21.6875 -16.222656 21.03125 -15.734375 C 20.382812 -15.253906 19.675781 -14.882812 18.90625 -14.625 C 19.226562 -14.488281 19.554688 -14.285156 19.890625 -14.015625 C 20.222656 -13.742188 20.535156 -13.414062 20.828125 -13.03125 C 21.117188 -12.65625 21.382812 -12.222656 21.625 -11.734375 C 21.875 -11.242188 22.066406 -10.71875 22.203125 -10.15625 L 23.84375 -3.71875 L 26.40625 -3.71875 L 26.453125 0 L 20.6875 0 L 18.484375 -9 C 18.078125 -10.613281 17.457031 -11.800781 16.625 -12.5625 C 15.800781 -13.332031 14.675781 -13.71875 13.25 -13.71875 L 9.4375 -13.71875 L 9.4375 -3.359375 L 12.40625 -3.359375 L 12.40625 0 L 2.796875 0 L 2.796875 -3.359375 L 5.609375 -3.359375 L 5.609375 -26.234375 L 2.796875 -26.234375 Z M 9.4375 -26.234375 L 9.4375 -16.921875 L 15.125 -16.921875 C 15.863281 -16.921875 16.539062 -17.015625 17.15625 -17.203125 C 17.78125 -17.398438 18.316406 -17.691406 18.765625 -18.078125 C 19.210938 -18.472656 19.5625 -18.957031 19.8125 -19.53125 C 20.070312 -20.113281 20.203125 -20.789062 20.203125 -21.5625 C 20.203125 -23.03125 19.757812 -24.175781 18.875 -25 C 17.988281 -25.820312 16.582031 -26.234375 14.65625 -26.234375 Z M 9.4375 -26.234375 "/></g></g></g><g fill="#ffffff" fill-opacity="1"><g transform="translate(200.465013, 200.999987)"><g><path d="M 22.40625 -26.234375 L 22.40625 -29.609375 L 29.203125 -29.609375 L 29.203125 -26.234375 L 26.875 -26.234375 L 13.90625 -15.3125 L 26.03125 -3.359375 L 29.203125 -3.359375 L 29.203125 0 L 21.234375 0 L 21.234375 -3.359375 L 9.46875 -15.125 Z M 2.828125 -29.609375 L 12.4375 -29.609375 L 12.4375 -26.234375 L 9.4375 -26.234375 L 9.4375 -3.359375 L 12.40625 -3.359375 L 12.40625 0 L 2.796875 0 L 2.796875 -3.359375 L 5.609375 -3.359375 L 5.609375 -26.234375 L 2.828125 -26.234375 Z M 2.828125 -29.609375 "/></g></g></g><g fill="#ffffff" fill-opacity="1"><g transform="translate(231.067497, 200.999987)"><g><path d="M 8.640625 -20.234375 L 13.328125 -20.234375 L 13.328125 -17.28125 L 8.640625 -17.28125 L 8.640625 -3.359375 L 11.796875 -3.359375 L 11.796875 0 L 1.953125 0 L 1.953125 -3.359375 L 5 -3.359375 L 5 -17.28125 L 1.65625 -17.28125 L 1.65625 -20.234375 L 5 -20.234375 L 5 -23.40625 C 5.03125 -24.570312 5.203125 -25.59375 5.515625 -26.46875 C 5.828125 -27.34375 6.269531 -28.070312 6.84375 -28.65625 C 7.414062 -29.238281 8.101562 -29.671875 8.90625 -29.953125 C 9.71875 -30.242188 10.617188 -30.390625 11.609375 -30.390625 C 12.296875 -30.390625 12.910156 -30.359375 13.453125 -30.296875 C 14.003906 -30.234375 14.492188 -30.144531 14.921875 -30.03125 C 15.347656 -29.914062 15.726562 -29.789062 16.0625 -29.65625 C 16.394531 -29.53125 16.691406 -29.40625 16.953125 -29.28125 L 15.84375 -26.6875 C 15.425781 -26.90625 14.878906 -27.09375 14.203125 -27.25 C 13.535156 -27.40625 12.835938 -27.484375 12.109375 -27.484375 C 11.023438 -27.484375 10.175781 -27.144531 9.5625 -26.46875 C 8.945312 -25.800781 8.640625 -24.816406 8.640625 -23.515625 Z M 8.640625 -20.234375 "/></g></g></g><g fill="#ffffff" fill-opacity="1"><g transform="translate(245.616862, 200.999987)"><g><path d="M 1.796875 -30.390625 L 8.359375 -30.390625 L 8.359375 -3.359375 L 11.40625 -3.359375 L 11.40625 0 L 1.796875 0 L 1.796875 -3.359375 L 4.734375 -3.359375 L 4.734375 -27.03125 L 1.796875 -27.03125 Z M 1.796875 -30.390625 "/></g></g></g><g fill="#ffffff" fill-opacity="1"><g transform="translate(258.623403, 200.999987)"><g><path d="M 1.796875 -20.234375 L 8.40625 -20.234375 L 8.40625 -3.359375 L 11.453125 -3.359375 L 11.453125 0 L 1.84375 0 L 1.84375 -3.359375 L 4.734375 -3.359375 L 4.734375 -16.875 L 1.796875 -16.875 Z M 4.046875 -27.40625 C 4.046875 -27.738281 4.113281 -28.054688 4.25 -28.359375 C 4.382812 -28.671875 4.566406 -28.941406 4.796875 -29.171875 C 5.023438 -29.398438 5.296875 -29.582031 5.609375 -29.71875 C 5.921875 -29.851562 6.253906 -29.921875 6.609375 -29.921875 C 6.941406 -29.921875 7.257812 -29.851562 7.5625 -29.71875 C 7.875 -29.582031 8.144531 -29.398438 8.375 -29.171875 C 8.601562 -28.941406 8.785156 -28.671875 8.921875 -28.359375 C 9.054688 -28.054688 9.125 -27.738281 9.125 -27.40625 C 9.125 -27.050781 9.054688 -26.71875 8.921875 -26.40625 C 8.785156 -26.09375 8.601562 -25.816406 8.375 -25.578125 C 8.144531 -25.335938 7.875 -25.148438 7.5625 -25.015625 C 7.257812 -24.878906 6.941406 -24.8125 6.609375 -24.8125 C 6.253906 -24.8125 5.921875 -24.878906 5.609375 -25.015625 C 5.296875 -25.148438 5.023438 -25.335938 4.796875 -25.578125 C 4.566406 -25.816406 4.382812 -26.09375 4.25 -26.40625 C 4.113281 -26.71875 4.046875 -27.050781 4.046875 -27.40625 Z M 4.046875 -27.40625 "/></g></g></g><g fill="#ffffff" fill-opacity="1"><g transform="translate(271.454186, 200.999987)"><g><path d="M 13.5625 -3.359375 L 14.703125 -3.359375 L 10.6875 -8.359375 L 6.765625 -3.359375 L 7.75 -3.359375 L 7.75 0 L 1.03125 0 L 1.03125 -3.359375 L 2.671875 -3.359375 L 8.828125 -10.53125 L 3.046875 -16.875 L 1 -16.875 L 1 -20.234375 L 7.71875 -20.234375 L 7.71875 -16.875 L 6.953125 -16.875 L 10.6875 -12.078125 L 14.453125 -16.875 L 13.484375 -16.875 L 13.484375 -20.234375 L 20.203125 -20.234375 L 20.203125 -16.875 L 18.453125 -16.875 L 12.734375 -10.28125 L 18.796875 -3.359375 L 20.28125 -3.359375 L 20.28125 0 L 13.5625 0 Z M 13.5625 -3.359375 "/></g></g></g></svg>